<svg  viewBox="0 0 2000 2000" xmlns="http://www.w3.org/2000/svg" xmlns:xlink="http://www.w3.org/1999/xlink">
<path fill-rule="evenodd"  opacity="0" fill="rgb(5, 6, 7)"
 d="M0.000,0.000 L2000.000,0.000 L2000.000,2000.000 L0.000,2000.000 L0.000,0.000 Z"/>
<path fill-rule="evenodd"  stroke="rgb(49, 50, 61)" stroke-width="7px" stroke-linecap="butt" stroke-linejoin="miter" fill="rgb(255, 255, 255)"
 d="M687.784,512.332 C742.423,494.346 827.194,472.346 848.161,471.889 C869.127,471.432 901.148,474.904 901.619,512.332 C902.091,549.759 894.582,629.395 865.499,674.104 C838.141,716.159 809.376,743.113 765.805,754.990 C716.667,768.383 644.534,755.207 586.773,711.963 C524.622,665.433 515.025,652.020 507.846,625.863 C505.219,616.292 506.545,595.769 538.967,575.885 C595.390,541.281 644.748,526.498 687.784,512.332 Z"/>
<path fill-rule="evenodd"  fill="rgb(126, 56, 67)"
 d="M775.919,494.999 C775.919,494.999 793.762,551.108 770.140,593.218 C750.568,628.107 690.519,655.674 645.884,630.772 C599.844,605.085 593.788,573.745 593.870,558.552 C593.918,549.734 644.818,529.834 671.891,522.442 C698.964,515.051 775.919,494.999 775.919,494.999 Z"/>
<path fill-rule="evenodd"  fill="rgb(49, 50, 61)"
 d="M775.919,494.999 C775.919,494.999 789.747,520.289 786.033,546.997 C782.256,574.157 779.732,592.618 753.984,606.537 C726.056,621.636 698.531,607.435 682.005,583.107 C664.737,557.688 668.627,530.330 671.891,525.331 C675.155,520.332 775.919,494.999 775.919,494.999 Z"/>
<path fill-rule="evenodd"  stroke="rgb(255, 255, 255)" stroke-width="2px" stroke-linecap="butt" stroke-linejoin="miter" fill="rgb(255, 255, 255)"
 d="M778.451,495.203 C782.881,494.190 783.845,523.180 771.585,526.776 C761.273,529.800 756.534,531.208 745.578,526.776 C734.621,522.343 729.684,509.443 729.684,509.443 L778.451,495.203 Z"/>
<path fill-rule="evenodd"  stroke="rgb(49, 50, 61)" stroke-width="7px" stroke-linecap="butt" stroke-linejoin="miter" fill="none"
 d="M687.784,512.332 C742.423,494.346 827.194,472.346 848.161,471.889 C869.127,471.432 901.148,474.904 901.619,512.332 C902.091,549.759 894.582,629.395 865.499,674.104 C838.141,716.159 809.376,743.113 765.805,754.990 C716.667,768.383 644.534,755.207 586.773,711.963 C524.622,665.433 515.025,652.020 507.846,625.863 C505.219,616.292 506.545,595.769 538.967,575.885 C595.390,541.281 644.748,526.498 687.784,512.332 Z"/>
<path fill-rule="evenodd"  stroke="rgb(49, 50, 61)" stroke-width="7px" stroke-linecap="butt" stroke-linejoin="miter" fill="rgb(255, 255, 255)"
 d="M1313.298,509.590 C1258.685,491.558 1173.952,469.503 1152.995,469.045 C1132.038,468.587 1100.032,472.068 1099.561,509.590 C1099.090,547.111 1106.595,626.947 1135.665,671.767 C1163.010,713.927 1191.762,740.950 1235.313,752.856 C1284.429,766.283 1356.529,753.074 1414.263,709.721 C1476.386,663.075 1485.978,649.628 1493.154,623.406 C1495.780,613.810 1494.455,593.236 1462.048,573.302 C1405.650,538.611 1356.315,523.792 1313.298,509.590 Z"/>
<path fill-rule="evenodd"  fill="rgb(126, 56, 67)"
 d="M1225.204,492.213 C1225.204,492.213 1207.369,548.463 1230.981,590.678 C1250.543,625.655 1310.565,653.291 1355.179,628.327 C1401.198,602.575 1407.251,571.156 1407.169,555.926 C1407.121,547.086 1356.245,527.136 1329.184,519.726 C1302.123,512.315 1225.204,492.213 1225.204,492.213 Z"/>
<path fill-rule="evenodd"  fill="rgb(49, 50, 61)"
 d="M1225.204,492.213 C1225.204,492.213 1211.383,517.567 1215.095,544.342 C1218.869,571.569 1221.393,590.077 1247.129,604.031 C1275.044,619.168 1302.556,604.931 1319.075,580.542 C1336.335,555.060 1332.446,527.633 1329.184,522.622 C1325.922,517.610 1225.204,492.213 1225.204,492.213 Z"/>
<path fill-rule="evenodd"  stroke="rgb(255, 255, 255)" stroke-width="2px" stroke-linecap="butt" stroke-linejoin="miter" fill="rgb(255, 255, 255)"
 d="M1222.673,492.418 C1218.245,491.402 1217.282,520.465 1229.536,524.070 C1239.843,527.102 1244.580,528.513 1255.531,524.070 C1266.483,519.626 1271.417,506.693 1271.417,506.693 L1222.673,492.418 Z"/>
<path fill-rule="evenodd"  stroke="rgb(49, 50, 61)" stroke-width="7px" stroke-linecap="butt" stroke-linejoin="miter" fill="none"
 d="M1313.298,509.590 C1258.685,491.558 1173.952,469.503 1152.995,469.045 C1132.038,468.587 1100.032,472.068 1099.561,509.590 C1099.090,547.111 1106.595,626.947 1135.665,671.767 C1163.010,713.927 1191.762,740.950 1235.313,752.856 C1284.429,766.283 1356.529,753.074 1414.263,709.721 C1476.386,663.075 1485.978,649.628 1493.154,623.406 C1495.780,613.810 1494.455,593.236 1462.048,573.302 C1405.650,538.611 1356.315,523.792 1313.298,509.590 Z"/>
</svg>