<svg 
 viewBox="0 0 2000 2000" xmlns="http://www.w3.org/2000/svg"
 xmlns:xlink="http://www.w3.org/1999/xlink"
>
<path fill-rule="evenodd"  opacity="0" fill="rgb(5, 6, 7)"
 d="M0.000,0.000 L2000.000,0.000 L2000.000,2000.000 L0.000,2000.000 L0.000,0.000 Z"/>
<path fill-rule="evenodd"  fill="rgb(252, 227, 107)"
 d="M1085.140,577.248 C1094.385,569.379 1322.180,518.441 1375.927,506.212 C1429.911,493.929 1541.715,486.480 1541.715,486.480 C1541.715,486.480 1526.992,537.068 1511.452,564.093 C1495.912,591.118 1430.548,663.666 1394.348,681.170 C1342.328,706.323 1253.804,727.349 1191.718,696.956 C1099.256,651.693 1080.912,580.846 1085.140,577.248 Z"/>
<path fill-rule="evenodd"  fill="rgb(151, 73, 108)"
 d="M1362.769,508.843 C1362.769,508.843 1364.729,578.032 1360.137,602.242 C1357.437,616.481 1344.271,634.579 1333.775,635.876 C1318.234,637.796 1302.579,616.990 1299.612,595.665 C1296.965,576.645 1293.200,528.063 1298.296,520.683 C1303.392,513.303 1362.769,508.843 1362.769,508.843 Z"/>
<path fill-rule="evenodd"  fill="rgb(255, 255, 255)"
 d="M1298.273,556.220 C1309.167,556.220 1317.999,564.757 1317.999,575.287 C1317.999,585.817 1309.167,594.354 1298.273,594.354 C1287.378,594.354 1278.546,585.817 1278.546,575.287 C1278.546,564.757 1287.378,556.220 1298.273,556.220 Z"/>
<path fill-rule="evenodd"  stroke="rgb(26, 26, 26)" stroke-width="2px" stroke-linecap="butt" stroke-linejoin="miter" fill="rgb(26, 26, 26)"
 d="M1107.508,569.355 C1107.508,569.355 1239.167,519.755 1340.401,494.373 C1436.788,470.207 1543.394,454.746 1575.925,452.278 C1588.235,451.344 1584.286,454.777 1539.669,545.133 C1520.616,583.718 1482.990,617.574 1457.505,639.075 C1441.741,652.375 1423.295,661.438 1423.295,661.438 C1423.295,661.438 1474.686,611.469 1496.979,583.825 C1519.271,556.181 1541.715,485.165 1541.715,485.165 C1541.715,485.165 1438.265,494.894 1368.032,510.159 C1297.799,525.424 1107.508,569.355 1107.508,569.355 Z"/>
<path fill-rule="evenodd"  fill="rgb(252, 227, 107)"
 d="M914.829,572.406 C905.584,564.519 677.807,513.460 624.066,501.202 C570.085,488.890 458.291,481.423 458.291,481.423 C458.291,481.423 473.013,532.131 488.551,559.220 C504.090,586.310 569.449,659.030 605.646,676.575 C657.661,701.788 746.178,722.864 808.259,692.398 C900.713,647.028 919.055,576.013 914.829,572.406 Z"/>
<path fill-rule="evenodd"  fill="rgb(151, 73, 108)"
 d="M637.222,503.839 C637.222,503.839 635.262,573.192 639.853,597.459 C642.554,611.732 655.718,629.874 666.213,631.173 C681.754,633.098 697.407,612.243 700.374,590.867 C703.020,571.802 706.786,523.104 701.690,515.707 C696.594,508.309 637.222,503.839 637.222,503.839 Z"/>
<path fill-rule="evenodd"  fill="rgb(255, 255, 255)"
 d="M701.665,551.352 C712.560,551.352 721.392,559.903 721.392,570.450 C721.392,580.998 712.560,589.548 701.665,589.548 C690.770,589.548 681.938,580.998 681.938,570.450 C681.938,559.903 690.770,551.352 701.665,551.352 Z"/>
<path fill-rule="evenodd"  stroke="rgb(26, 26, 26)" stroke-width="2px" stroke-linecap="butt" stroke-linejoin="miter" fill="rgb(26, 26, 26)"
 d="M892.462,564.495 C892.462,564.495 760.814,514.777 659.589,489.335 C563.210,465.111 456.612,449.613 424.083,447.140 C411.775,446.204 415.723,449.644 460.337,540.215 C479.388,578.892 517.012,612.829 542.494,634.380 C558.257,647.711 576.701,656.796 576.701,656.796 C576.701,656.796 525.314,606.709 503.024,578.999 C480.733,551.290 458.291,480.105 458.291,480.105 C458.291,480.105 561.732,489.857 631.959,505.158 C702.187,520.459 892.462,564.495 892.462,564.495 Z"/>
</svg>